<svg width="24" height="24" viewBox="0 0 24 24" fill="none" xmlns="http://www.w3.org/2000/svg">
<path d="M11.9988 1.9585C6.47751 1.9585 2.00001 6.45349 2.00001 11.9985C1.99776 14.1029 2.65691 16.1548 3.8843 17.8643C5.1117 19.5737 6.84527 20.8542 8.84001 21.5247C9.34001 21.6172 9.52251 21.3072 9.52251 21.041C9.52251 20.8022 9.51376 20.171 9.50876 19.3335C6.72751 19.9397 6.14001 17.9872 6.14001 17.9872C5.68626 16.8272 5.03001 16.5185 5.03001 16.5185C4.12126 15.896 5.09751 15.9085 5.09751 15.9085C6.10126 15.9797 6.62876 16.9435 6.62876 16.9435C7.52126 18.4772 8.97001 18.0347 9.54001 17.7772C9.63001 17.1285 9.88876 16.686 10.175 16.4347C7.95501 16.181 5.62001 15.3197 5.62001 11.4735C5.62001 10.3772 6.01001 9.48099 6.65001 8.77849C6.54626 8.52474 6.20376 7.50349 6.74751 6.12224C6.74751 6.12224 7.58751 5.85224 9.49751 7.15099C10.3134 6.92801 11.1554 6.81451 12.0013 6.81349C12.8472 6.81517 13.6891 6.92908 14.505 7.15224C16.4138 5.85349 17.2525 6.12349 17.2525 6.12349C17.7975 7.50599 17.455 8.52599 17.3525 8.77974C17.9938 9.48224 18.38 10.3785 18.38 11.4747C18.38 15.331 16.0425 16.1797 13.815 16.4285C14.1738 16.7385 14.4938 17.351 14.4938 18.2872C14.4938 19.6297 14.4813 20.7122 14.4813 21.041C14.4813 21.3097 14.6613 21.6222 15.1688 21.5235C17.1616 20.8513 18.893 19.5704 20.1187 17.8614C21.3444 16.1524 22.0024 14.1016 22 11.9985C22 6.45349 17.5225 1.9585 11.9988 1.9585Z" fill="#8F8E8E"/>
</svg>
