<svg width="24" height="24" viewBox="0 0 24 24" fill="none" xmlns="http://www.w3.org/2000/svg">
<path d="M8.03827 3.66895C7.27576 3.66895 4.97688 4.60153 4.56444 4.78791C4.15201 4.97429 3.69422 5.55609 3.17477 6.51632C2.65462 7.47655 2.23722 8.59905 1.55904 10.2502C0.881566 11.9014 0.723536 15.0847 0.746213 16.0562C0.76889 17.0278 0.880149 17.7868 1.87581 18.3615C2.87076 18.9355 3.75091 19.5364 4.67712 19.8978C5.60404 20.2593 6.23616 20.5193 6.6656 20.1579C7.09505 19.7965 7.3778 19.1637 7.3778 19.1637C7.3778 19.1637 7.78457 18.5989 7.01639 18.2601C6.24821 17.9207 5.86412 17.6833 5.89742 17.3332C5.93144 16.9831 5.98742 16.7911 6.17947 16.8365C6.37151 16.8818 6.82434 17.6946 8.56409 18.0674C10.3038 18.4401 11.9996 18.3842 11.9996 18.3842C11.9996 18.3842 13.6962 18.4408 15.4359 18.0674C17.1757 17.6946 17.6278 16.8818 17.8198 16.8365C18.0119 16.7911 18.0679 16.9831 18.1019 17.3325C18.1359 17.6833 17.7518 17.9207 16.9836 18.2601C16.2154 18.5989 16.6222 19.1637 16.6222 19.1637C16.6222 19.1637 16.905 19.7958 17.3344 20.1579C17.7631 20.5193 18.396 20.2593 19.3222 19.8978C20.2484 19.5364 21.1292 18.9362 22.1242 18.3615C23.1199 17.7868 23.2311 17.0278 23.2538 16.0562C23.2765 15.0854 23.1184 11.9014 22.4403 10.2502C21.7628 8.59905 21.3447 7.47655 20.8245 6.51632C20.3058 5.55609 19.8473 4.97429 19.4356 4.7872C19.0231 4.60153 16.7235 3.66895 15.961 3.66895C15.1985 3.66895 14.9732 4.20044 14.9732 4.20044L14.7074 4.78791C14.7074 4.78791 12.9216 4.44847 12.0117 4.44776C11.1018 4.44776 9.29259 4.78791 9.29259 4.78791L9.02684 4.19973C9.02684 4.19973 8.80149 3.66895 8.03827 3.66895ZM8.12118 10.7186H8.14953C9.26141 10.7186 10.1621 11.6916 10.1621 12.8914C10.1621 14.0918 9.26141 15.0641 8.14953 15.0641C7.03765 15.0641 6.13695 14.0918 6.13695 12.8914C6.13624 11.703 7.02064 10.7349 8.12118 10.7186ZM15.8505 10.7186H15.8788C16.9794 10.7349 17.8631 11.7037 17.8631 12.8914C17.8631 14.0918 16.9624 15.0641 15.8505 15.0641C14.7379 15.0641 13.8379 14.0918 13.8379 12.8914C13.8379 11.6916 14.7379 10.7186 15.8505 10.7186Z" fill="#8F8E8E"/>
</svg>
