<svg width="1294" height="605" viewBox="0 0 1294 605" fill="none" xmlns="http://www.w3.org/2000/svg">
<rect y="405" width="209" height="200" fill="#D9F7FF"/>
<circle cx="104.5" cy="404.5" r="104.5" fill="url(#paint0_linear_7_36)"/>
<circle cx="104.5" cy="404.5" r="54.5" fill="url(#paint1_linear_7_36)"/>
<rect x="217" y="405" width="209" height="200" fill="#FFF7A5"/>
<circle cx="321.5" cy="404.5" r="104.5" fill="url(#paint2_linear_7_36)"/>
<circle cx="321.5" cy="404.5" r="54.5" fill="url(#paint3_linear_7_36)"/>
<rect x="434" y="305" width="209" height="300" fill="#83EEE8"/>
<circle cx="538.5" cy="304.5" r="104.5" fill="url(#paint4_linear_7_36)"/>
<circle cx="538.5" cy="304.5" r="54.5" fill="url(#paint5_linear_7_36)"/>
<rect x="651" y="255" width="209" height="350" fill="#96E9FF"/>
<circle cx="755.5" cy="254.5" r="104.5" transform="rotate(-180 755.5 254.5)" fill="url(#paint6_linear_7_36)"/>
<circle cx="755.5" cy="254.5" r="54.5" transform="rotate(-180 755.5 254.5)" fill="url(#paint7_linear_7_36)"/>
<rect x="868" y="155" width="209" height="450" fill="#FFC38B"/>
<circle cx="972.5" cy="154.5" r="104.5" fill="url(#paint8_linear_7_36)"/>
<circle cx="972.5" cy="154.5" r="54.5" fill="url(#paint9_linear_7_36)"/>
<rect x="1085" y="105" width="209" height="500" fill="#E2E0FF"/>
<circle cx="1189.5" cy="104.5" r="104.5" fill="url(#paint10_linear_7_36)"/>
<circle cx="1189.5" cy="104.5" r="54.5" fill="url(#paint11_linear_7_36)"/>
<defs>
<linearGradient id="paint0_linear_7_36" x1="0" y1="404.5" x2="209" y2="404.5" gradientUnits="userSpaceOnUse">
<stop offset="0.5" stop-color="#A7E9FD"/>
<stop offset="0.5" stop-color="#39D1F9"/>
</linearGradient>
<linearGradient id="paint1_linear_7_36" x1="159" y1="404.5" x2="50" y2="404.5" gradientUnits="userSpaceOnUse">
<stop offset="0.5" stop-color="#A7E9FD"/>
<stop offset="0.5" stop-color="#39D1F9"/>
</linearGradient>
<linearGradient id="paint2_linear_7_36" x1="217" y1="404.5" x2="426" y2="404.5" gradientUnits="userSpaceOnUse">
<stop offset="0.5" stop-color="#FFD400"/>
<stop offset="0.5" stop-color="#FFB400"/>
</linearGradient>
<linearGradient id="paint3_linear_7_36" x1="376" y1="404.5" x2="267" y2="404.5" gradientUnits="userSpaceOnUse">
<stop offset="0.5" stop-color="#FFD400"/>
<stop offset="0.5" stop-color="#FFB400"/>
</linearGradient>
<linearGradient id="paint4_linear_7_36" x1="434" y1="304.5" x2="643" y2="304.5" gradientUnits="userSpaceOnUse">
<stop offset="0.5" stop-color="#39BEB7"/>
<stop offset="0.5" stop-color="#00827B"/>
</linearGradient>
<linearGradient id="paint5_linear_7_36" x1="593" y1="304.5" x2="484" y2="304.5" gradientUnits="userSpaceOnUse">
<stop offset="0.5" stop-color="#39BEB7"/>
<stop offset="0.5" stop-color="#00827B"/>
</linearGradient>
<linearGradient id="paint6_linear_7_36" x1="651" y1="254.5" x2="860" y2="254.5" gradientUnits="userSpaceOnUse">
<stop offset="0.5" stop-color="#008AFF"/>
<stop offset="0.5" stop-color="#00AEFF"/>
</linearGradient>
<linearGradient id="paint7_linear_7_36" x1="810" y1="254.5" x2="701" y2="254.5" gradientUnits="userSpaceOnUse">
<stop offset="0.5" stop-color="#008AFF"/>
<stop offset="0.5" stop-color="#00AEFF"/>
</linearGradient>
<linearGradient id="paint8_linear_7_36" x1="868" y1="154.5" x2="1077" y2="154.5" gradientUnits="userSpaceOnUse">
<stop offset="0.5" stop-color="#FF8130"/>
<stop offset="0.5" stop-color="#FF3200"/>
</linearGradient>
<linearGradient id="paint9_linear_7_36" x1="1027" y1="154.5" x2="918" y2="154.5" gradientUnits="userSpaceOnUse">
<stop offset="0.5" stop-color="#FF8130"/>
<stop offset="0.5" stop-color="#FF3200"/>
</linearGradient>
<linearGradient id="paint10_linear_7_36" x1="1085" y1="104.5" x2="1294" y2="104.5" gradientUnits="userSpaceOnUse">
<stop offset="0.5" stop-color="#BDBBFF"/>
<stop offset="0.5" stop-color="#9896FF"/>
</linearGradient>
<linearGradient id="paint11_linear_7_36" x1="1244" y1="104.5" x2="1135" y2="104.5" gradientUnits="userSpaceOnUse">
<stop offset="0.5" stop-color="#BDBBFF"/>
<stop offset="0.5" stop-color="#9896FF"/>
</linearGradient>
</defs>
</svg>
