<svg width="49" height="38" viewBox="0 0 49 38" fill="none" xmlns="http://www.w3.org/2000/svg">
<path fill-rule="evenodd" clip-rule="evenodd" d="M0.142937 6.8244L23.9557 0L48.0589 6.8244L23.5201 13.2132L0.142937 6.8244ZM10.8877 6.2436L12.4849 6.8244L23.5201 3.0492L21.7777 2.4684L10.8877 6.2436Z" fill="#8F8E8E"/>
<path d="M45.7363 7.4052L46.3171 7.26V14.2296H46.4623L47.1883 16.2624H44.8651L45.5911 14.2296H45.7363V7.4052Z" fill="#8F8E8E"/>
<path d="M6.29957 15.4714C7.78691 13.6364 9.87476 12.386 12.1945 11.9408C14.5142 11.4956 16.9166 11.8844 18.9776 13.0384C21.0385 14.1924 22.6255 16.0375 23.4582 18.2479C24.291 20.4583 24.316 22.8918 23.5288 25.1189C22.7416 27.3459 21.1929 29.2232 19.1561 30.4193C17.1193 31.6154 14.7254 32.0534 12.397 31.656C10.0686 31.2586 7.95551 30.0513 6.43079 28.2472C4.90607 26.4432 4.06778 24.1585 4.06392 21.7964L7.67069 21.7905C7.67316 23.3022 8.20966 24.7645 9.18548 25.9191C10.1613 27.0736 11.5137 27.8463 13.0038 28.1007C14.494 28.355 16.0261 28.0747 17.3297 27.3092C18.6332 26.5437 19.6244 25.3422 20.1282 23.9169C20.632 22.4916 20.616 20.9341 20.083 19.5195C19.5501 18.1048 18.5344 16.924 17.2154 16.1854C15.8964 15.4468 14.3589 15.198 12.8742 15.4829C11.3896 15.7678 10.0534 16.5681 9.1015 17.7425L6.29957 15.4714Z" fill="#8F8E8E"/>
<path d="M41.7583 15.4714C40.2709 13.6364 38.1831 12.386 35.8633 11.9408C33.5436 11.4956 31.1412 11.8844 29.0802 13.0384C27.0193 14.1924 25.4323 16.0375 24.5996 18.2479C23.7668 20.4583 23.7419 22.8918 24.529 25.1189C25.3162 27.3459 26.8649 29.2232 28.9017 30.4193C30.9385 31.6154 33.3325 32.0534 35.6608 31.656C37.9892 31.2586 40.1023 30.0513 41.627 28.2472C43.1517 26.4432 43.99 24.1585 43.9939 21.7964L40.3871 21.7905C40.3847 23.3022 39.8482 24.7645 38.8723 25.9191C37.8965 27.0736 36.5441 27.8463 35.054 28.1007C33.5638 28.355 32.0317 28.0747 30.7281 27.3092C29.4246 26.5437 28.4334 25.3422 27.9296 23.9169C27.4258 22.4916 27.4418 20.9341 27.9748 19.5195C28.5077 18.1048 29.5234 16.924 30.8424 16.1854C32.1614 15.4468 33.6989 15.198 35.1836 15.4829C36.6682 15.7678 38.0044 16.5681 38.9563 17.7425L41.7583 15.4714Z" fill="#8F8E8E"/>
<path d="M23.9563 21.1992L43.9687 21.2839C44.0665 22.2882 43.8225 23.3927 43.6309 24.3937L23.9563 24.2484V21.1992Z" fill="#8F8E8E"/>
<path d="M24.1015 21.1992L4.06391 21.2718C3.99131 22.2882 4.23536 23.3201 4.42691 24.321L24.1015 24.2484V21.1992Z" fill="#8F8E8E"/>
<path d="M20.3943 32.7552L23.8962 29.383C24.0102 29.2732 24.1911 29.2749 24.303 29.3868L27.8127 32.8964C27.9276 33.0114 27.9258 33.1982 27.8087 33.311L24.3068 36.6832C24.1928 36.793 24.0119 36.7913 23.9 36.6794L20.3904 33.1698C20.2754 33.0548 20.2772 32.868 20.3943 32.7552Z" fill="#8F8E8E"/>
</svg>
